<?xml version="1.0" encoding="UTF-8"?>
<svg version="1.1" xmlns="http://www.w3.org/2000/svg" width="333" height="78">
<path d="M0 0 C109.89 0 219.78 0 333 0 C333 25.74 333 51.48 333 78 C223.11 78 113.22 78 0 78 C0 52.26 0 26.52 0 0 Z " fill="#1D2431" transform="translate(0,0)"/>
<path d="M0 0 C0.79205338 -0.0049649 1.58410675 -0.00992981 2.40016174 -0.01504517 C5.02744406 -0.02968175 7.65466598 -0.03647166 10.28198242 -0.04199219 C12.1056061 -0.04774291 13.92922976 -0.05350065 15.75285339 -0.05926514 C19.58035565 -0.06977973 23.40783688 -0.07561923 27.23535156 -0.07910156 C32.13818995 -0.08458379 37.04075026 -0.10860405 41.94350147 -0.13707352 C45.71218169 -0.15570522 49.48079505 -0.16090581 53.24951744 -0.16243744 C55.05681565 -0.16546387 56.86411269 -0.17349209 58.67136574 -0.18662262 C61.20169785 -0.2036925 63.73135229 -0.20180058 66.26171875 -0.1953125 C67.00736084 -0.20452728 67.75300293 -0.21374207 68.52124023 -0.22323608 C72.96928797 -0.18753887 75.80402613 0.39687548 79.32495117 3.16113281 C81.71523438 6.74655763 81.63119896 9.35451848 81.62573242 13.49707031 C81.63001755 14.21343658 81.63430267 14.92980286 81.63871765 15.6678772 C81.64445636 17.18254541 81.64496458 18.69724119 81.640625 20.21191406 C81.63747185 22.52099089 81.66090387 24.82877751 81.6862793 27.13769531 C81.68855315 28.61165204 81.68925539 30.08561219 81.68823242 31.55957031 C81.69744217 32.24618744 81.70665192 32.93280457 81.71614075 33.64022827 C81.67459325 37.9800438 81.05938696 40.75767818 78.32495117 44.16113281 C74.64443091 46.70639107 70.72945431 46.45690295 66.42285156 46.45166016 C65.63050613 46.45837738 64.83816071 46.4650946 64.02180481 46.47201538 C61.40534172 46.49099681 58.78913506 46.49491945 56.17260742 46.49707031 C54.35184117 46.50349751 52.53107596 46.51022581 50.71031189 46.51724243 C46.89474086 46.5292151 43.07926037 46.5329232 39.26367188 46.53173828 C34.37646735 46.53153495 29.4898434 46.55885181 24.60277653 46.5932827 C20.84265988 46.61552721 17.08268357 46.6195766 13.32250786 46.61851883 C11.52078689 46.62087791 9.71906223 46.62971875 7.91740608 46.64518356 C5.39667263 46.66479692 2.87719939 46.65902473 0.35644531 46.64697266 C-0.38605469 46.65821167 -1.12855469 46.66945068 -1.89355469 46.68103027 C-5.49445472 46.63731748 -7.53651118 46.24798736 -10.61451721 44.31826782 C-14.17621998 40.58958262 -13.86119926 36.69933833 -13.91333008 31.82519531 C-13.92140182 31.10882904 -13.92947357 30.39246277 -13.93778992 29.65438843 C-13.95160596 28.13973392 -13.96233919 26.62504861 -13.97021484 25.11035156 C-13.98174482 23.5643601 -14.00221304 22.01840876 -14.03173828 20.47265625 C-14.07446237 18.2357282 -14.09058831 15.99998094 -14.10083008 13.76269531 C-14.11833817 13.07607819 -14.13584625 12.38946106 -14.15388489 11.68203735 C-14.13238716 6.901106 -13.04923161 4.51764971 -9.67504883 1.16113281 C-6.60157834 -0.37560243 -3.37316911 0.00501617 0 0 Z " fill="#0F6FFC" transform="translate(237.675048828125,13.8388671875)"/>
<path d="M0 0 C1.22589844 -0.00773437 2.45179687 -0.01546875 3.71484375 -0.0234375 C7.28877186 0.40193084 8.76287647 0.61206166 11.0625 3.375 C11.59375 6.58984375 11.59375 6.58984375 11.5625 10.3125 C11.5728125 11.53839844 11.583125 12.76429687 11.59375 14.02734375 C11.0625 17.375 11.0625 17.375 9.47265625 19.78515625 C6.20525423 21.94047655 3.88961473 21.90772021 0 21.875 C-1.22847656 21.8853125 -2.45695312 21.895625 -3.72265625 21.90625 C-6.9375 21.375 -6.9375 21.375 -8.84765625 19.78515625 C-10.3215271 16.52573576 -10.3350118 13.88062008 -10.3125 10.3125 C-10.32023437 9.08402344 -10.32796875 7.85554688 -10.3359375 6.58984375 C-9.9375 3.375 -9.9375 3.375 -8.84765625 1.46484375 C-5.91096584 -0.21069127 -3.34970204 -0.02108941 0 0 Z " fill="#1D2534" transform="translate(59.9375,38.625)"/>
<path d="M0 0 C1.22589844 -0.01933594 2.45179687 -0.03867188 3.71484375 -0.05859375 C7.0625 0.4375 7.0625 0.4375 9.47265625 2.05859375 C11.55084148 5.16821243 11.59662512 7.2178624 11.5625 10.9375 C11.5728125 12.0615625 11.583125 13.185625 11.59375 14.34375 C11.0625 17.4375 11.0625 17.4375 9.47265625 19.8125 C6.20712433 22.01422006 3.91207382 21.97040914 0 21.9375 C-1.22847656 21.9478125 -2.45695312 21.958125 -3.72265625 21.96875 C-6.9375 21.4375 -6.9375 21.4375 -8.84765625 19.84765625 C-10.3215271 16.58823576 -10.3350118 13.94312008 -10.3125 10.375 C-10.32023437 9.14652344 -10.32796875 7.91804688 -10.3359375 6.65234375 C-9.9375 3.4375 -9.9375 3.4375 -8.84765625 1.53125 C-5.91291293 -0.14917562 -3.35193837 0.00351725 0 0 Z " fill="#0D6BF6" transform="translate(32.9375,11.5625)"/>
<path d="M0 0 C3.4375 1.6875 3.4375 1.6875 6 4 C6.875 6.75 6.875 6.75 7 9 C4.125 9.1875 4.125 9.1875 1 9 C0.34 8.01 -0.32 7.02 -1 6 C-4.08365871 5.7497843 -4.08365871 5.7497843 -7 6 C-7.66 7.65 -8.32 9.3 -9 11 C-8.26394531 11.17015625 -7.52789062 11.3403125 -6.76953125 11.515625 C3.77956691 14.13548029 3.77956691 14.13548029 7 18 C8.0625 21.4375 8.0625 21.4375 8 25 C6.23358828 27.80189446 4.96950178 29.51524911 2 31 C-3.41101594 31.48755092 -8.31552836 31.89177911 -13.1875 29.3125 C-15.15914751 26.79694972 -15.7365632 25.16124161 -16 22 C-13.125 21.8125 -13.125 21.8125 -10 22 C-9.34 22.99 -8.68 23.98 -8 25 C-4.41642759 25.25015873 -4.41642759 25.25015873 -1 25 C-0.67 23.35 -0.34 21.7 0 20 C-0.66386719 19.82984375 -1.32773438 19.6596875 -2.01171875 19.484375 C-11.84542587 16.78548896 -11.84542587 16.78548896 -15 13 C-15.625 9.5625 -15.625 9.5625 -15 6 C-10.55243019 0.6160997 -6.93629242 -0.92655483 0 0 Z " fill="#3D70C4" transform="translate(101,20)"/>
<path d="M0 0 C3.0190434 1.75299294 5.41511201 3.83022401 7 7 C7 8.98 7 10.96 7 13 C1.72 13 -3.56 13 -9 13 C-8.01 14.65 -7.02 16.3 -6 18 C-3.41482413 18.50059916 -3.41482413 18.50059916 -1 18 C-0.67 17.67 -0.34 17.34 0 17 C1.99958364 16.95919217 4.00045254 16.95745644 6 17 C5.6875 18.875 5.6875 18.875 5 21 C0.52201424 23.98532384 -3.76207212 23.96252521 -9 23 C-11.9391948 21.16160629 -13.54581174 19.13300722 -15 16 C-15.87797212 12.05656591 -15.40176404 8.9039691 -13.75 5.1875 C-9.89595452 0.36994315 -6.26135815 -1.32197581 0 0 Z " fill="#4567C1" transform="translate(127,28)"/>
<path d="M0 0 C3.58552881 1.63687185 4.79315055 2.68972583 7 6 C7 8.31 7 10.62 7 13 C2.05 13 -2.9 13 -8 13 C-7.67 14.65 -7.34 16.3 -7 18 C-2.85906302 18.20970559 -2.85906302 18.20970559 1 17 C2.99960012 16.960008 5.00047242 16.95653201 7 17 C4.25 21.875 4.25 21.875 2 23 C-2.88852762 23.52778794 -6.7665435 23.73000486 -11.0625 21.1875 C-14.34550675 17.48087947 -14.27638441 13.94305892 -14.22265625 9.22265625 C-13.91796456 6.18108486 -12.92293013 4.35024793 -11 2 C-7.29361264 -0.47092491 -4.29830496 -0.55407837 0 0 Z " fill="#505DC0" transform="translate(163,28)"/>
<path d="M0 0 C3.41062591 0.78160177 5.01508245 2.01412864 7.0859375 4.83984375 C8.80164499 8.30791915 8.48678535 10.8540654 8 14.6875 C5.86111111 19.25694444 5.86111111 19.25694444 3 20.6875 C-1.04637274 21.13709697 -3.15244824 21.33946289 -6.4375 18.8125 C-8.64975235 14.38799529 -8.91481535 10.53999882 -8 5.6875 C-5.57652227 2.12356217 -4.18884636 0.95994396 0 0 Z " fill="#EBF3FE" transform="translate(292,25.3125)"/>
<path d="M0 0 C0.76183594 -0.00515625 1.52367187 -0.0103125 2.30859375 -0.015625 C4.84539809 0.28333981 6.41180201 0.88012867 8.5625 2.25 C10.5625 5.25 10.5625 5.25 10.5625 8.25 C8.5825 8.25 6.6025 8.25 4.5625 8.25 C4.2325 7.59 3.9025 6.93 3.5625 6.25 C1.5825 6.25 -0.3975 6.25 -2.4375 6.25 C-4.06401522 9.50303044 -3.55203156 12.64225602 -3.4375 16.25 C-2.31215895 17.60618499 -2.31215895 17.60618499 0.625 17.3125 C2.0790625 17.2815625 2.0790625 17.2815625 3.5625 17.25 C3.8925 16.59 4.2225 15.93 4.5625 15.25 C7.5325 15.745 7.5325 15.745 10.5625 16.25 C9.31273244 19.90316671 8.89151247 21.03065836 5.5625 23.25 C2.17142629 23.79602034 -1.04624176 23.79627924 -4.4375 23.25 C-7.26174288 21.05977082 -8.85258603 19.41982793 -10.4375 16.25 C-10.87830589 11.9351885 -10.90806025 8.30315866 -9.125 4.3125 C-6.35419234 0.9259573 -4.24601492 -0.02864091 0 0 Z " fill="#5655BE" transform="translate(184.4375,27.75)"/>
<path d="M0 0 C2.31 0 4.62 0 7 0 C7 1.98 7 3.96 7 6 C8.32 6 9.64 6 11 6 C11 7.65 11 9.3 11 11 C9.35 11 7.7 11 6 11 C6 15.29 6 19.58 6 24 C7.65 24 9.3 24 11 24 C11 25.65 11 27.3 11 29 C5.04296875 29.48828125 5.04296875 29.48828125 3 29 C-0.18462539 25.1898232 -0.33439523 22.0350425 -0.1875 17.1875 C-0.16042969 16.02605469 -0.13335937 14.86460938 -0.10546875 13.66796875 C-0.07066406 12.78753906 -0.03585938 11.90710937 0 11 C-0.99 11 -1.98 11 -3 11 C-3 9.35 -3 7.7 -3 6 C-2.01 6 -1.02 6 0 6 C0 4.02 0 2.04 0 0 Z " fill="#594EB7" transform="translate(200,22)"/>
<path d="M0 0 C1.22589844 -0.01933594 2.45179687 -0.03867187 3.71484375 -0.05859375 C7.0625 0.4375 7.0625 0.4375 9.47265625 2.05859375 C11.55084148 5.16821243 11.59662512 7.2178624 11.5625 10.9375 C11.5728125 12.0615625 11.583125 13.185625 11.59375 14.34375 C11.0625 17.4375 11.0625 17.4375 9.47265625 19.8125 C6.20712433 22.01422006 3.91207382 21.97040914 0 21.9375 C-1.22847656 21.9478125 -2.45695312 21.958125 -3.72265625 21.96875 C-6.9375 21.4375 -6.9375 21.4375 -8.84765625 19.84765625 C-10.3215271 16.58823576 -10.3350118 13.94312008 -10.3125 10.375 C-10.32023437 9.14652344 -10.32796875 7.91804688 -10.3359375 6.65234375 C-9.9375 3.4375 -9.9375 3.4375 -8.84765625 1.53125 C-5.91291293 -0.14917562 -3.35193837 0.00351725 0 0 Z M-6.9375 4.4375 C-7.01008946 6.62389453 -7.02123783 8.81250389 -7 11 C-6.99097656 12.19753906 -6.98195313 13.39507812 -6.97265625 14.62890625 C-6.96105469 15.55574219 -6.94945312 16.48257813 -6.9375 17.4375 C-4.32830172 18.74209914 -2.34807385 18.5701594 0.5625 18.5625 C1.5421875 18.56507812 2.521875 18.56765625 3.53125 18.5703125 C6.05681054 18.60690053 6.05681054 18.60690053 8.0625 17.4375 C8.11639087 15.47946493 8.15524217 13.52101091 8.1875 11.5625 C8.21070313 10.47195312 8.23390625 9.38140625 8.2578125 8.2578125 C8.36310534 5.3003949 8.36310534 5.3003949 6.0625 3.4375 C3.19867279 3.15587564 3.19867279 3.15587564 0 3.25 C-1.08410156 3.25644531 -2.16820312 3.26289062 -3.28515625 3.26953125 C-5.85952315 3.13918893 -5.85952315 3.13918893 -6.9375 4.4375 Z " fill="#0D6AF2" transform="translate(32.9375,38.5625)"/>
<path d="M0 0 C1.22589844 -0.00773438 2.45179687 -0.01546875 3.71484375 -0.0234375 C7.28877186 0.40193084 8.76287647 0.61206166 11.0625 3.375 C11.59375 6.58984375 11.59375 6.58984375 11.5625 10.3125 C11.5728125 11.53839844 11.583125 12.76429687 11.59375 14.02734375 C11.0625 17.375 11.0625 17.375 9.47265625 19.78515625 C6.20525423 21.94047655 3.88961473 21.90772021 0 21.875 C-1.22847656 21.8853125 -2.45695312 21.895625 -3.72265625 21.90625 C-6.9375 21.375 -6.9375 21.375 -8.84765625 19.78515625 C-10.3215271 16.52573576 -10.3350118 13.88062008 -10.3125 10.3125 C-10.32023437 9.08402344 -10.32796875 7.85554688 -10.3359375 6.58984375 C-9.9375 3.375 -9.9375 3.375 -8.84765625 1.46484375 C-5.91096584 -0.21069127 -3.34970204 -0.02108941 0 0 Z M-5.9375 3.375 C-7.31002731 6.12005463 -7.06979255 8.37827412 -7.0625 11.4375 C-7.06507812 12.52160156 -7.06765625 13.60570312 -7.0703125 14.72265625 C-7.23868564 17.29743398 -7.23868564 17.29743398 -5.9375 18.375 C-3.77269203 18.4739294 -1.60456215 18.504711 0.5625 18.5 C1.7484375 18.50257812 2.934375 18.50515625 4.15625 18.5078125 C6.95509422 18.70710219 6.95509422 18.70710219 8.0625 17.375 C8.18764928 15.39880553 8.2382276 13.41761827 8.25 11.4375 C8.26417969 10.35597656 8.27835938 9.27445313 8.29296875 8.16015625 C8.35298031 5.23455685 8.35298031 5.23455685 6.0625 3.375 C3.16366917 3.13160449 3.16366917 3.13160449 -0.0625 3.25 C-1.70605469 3.27707031 -1.70605469 3.27707031 -3.3828125 3.3046875 C-4.22585937 3.32789063 -5.06890625 3.35109375 -5.9375 3.375 Z " fill="#0D6AF2" transform="translate(59.9375,11.625)"/>
<path d="M0 0 C1.22589844 -0.00773437 2.45179687 -0.01546875 3.71484375 -0.0234375 C7.28877186 0.40193084 8.76287647 0.61206166 11.0625 3.375 C11.59375 6.58984375 11.59375 6.58984375 11.5625 10.3125 C11.5728125 11.53839844 11.583125 12.76429687 11.59375 14.02734375 C11.0625 17.375 11.0625 17.375 9.47265625 19.78515625 C6.20525423 21.94047655 3.88961473 21.90772021 0 21.875 C-1.22847656 21.8853125 -2.45695312 21.895625 -3.72265625 21.90625 C-6.9375 21.375 -6.9375 21.375 -8.84765625 19.78515625 C-10.3215271 16.52573576 -10.3350118 13.88062008 -10.3125 10.3125 C-10.32023437 9.08402344 -10.32796875 7.85554688 -10.3359375 6.58984375 C-9.9375 3.375 -9.9375 3.375 -8.84765625 1.46484375 C-5.91096584 -0.21069127 -3.34970204 -0.02108941 0 0 Z M-6.9375 4.375 C-7.0364294 6.53980797 -7.067211 8.70793785 -7.0625 10.875 C-7.06507812 12.0609375 -7.06765625 13.246875 -7.0703125 14.46875 C-7.26960219 17.26759422 -7.26960219 17.26759422 -5.9375 18.375 C-3.96130553 18.50014928 -1.98011827 18.5507276 0 18.5625 C1.08152344 18.57667969 2.16304687 18.59085938 3.27734375 18.60546875 C6.20294315 18.66548031 6.20294315 18.66548031 8.0625 16.375 C8.34412436 13.51117279 8.34412436 13.51117279 8.25 10.3125 C8.24355469 9.22839844 8.23710938 8.14429688 8.23046875 7.02734375 C8.36081107 4.45297685 8.36081107 4.45297685 7.0625 3.375 C4.89769203 3.2760706 2.72956215 3.245289 0.5625 3.25 C-0.6234375 3.24742188 -1.809375 3.24484375 -3.03125 3.2421875 C-5.83009422 3.04289781 -5.83009422 3.04289781 -6.9375 4.375 Z " fill="#0D6AF2" transform="translate(59.9375,38.625)"/>
<path d="M0 0 C1.98 0 3.96 0 6 0 C6 9.9 6 19.8 6 30 C4.02 30 2.04 30 0 30 C0 20.1 0 10.2 0 0 Z " fill="#4A64C4" transform="translate(138,21)"/>
<path d="M0 0 C2.375 1.1875 2.375 1.1875 4 3 C4.25 5.5 4.25 5.5 4 8 C3.85295708 10.94715645 3.85295708 10.94715645 4.75 13.4375 C5 16 5 16 3.5625 18.3125 C-0.22306969 20.80543613 -2.50501543 20.49944273 -7 20 C-9 18.6875 -9 18.6875 -10 17 C-10 16.01 -10 15.02 -10 14 C-6.97580475 14.58803797 -3.98241547 15.22678118 -1 16 C-0.67 14.68 -0.34 13.36 0 12 C-1.65 12 -3.3 12 -5 12 C-5 10.68 -5 9.36 -5 8 C-3.35 8 -1.7 8 0 8 C0 6.68 0 5.36 0 4 C-0.9075 4.33 -1.815 4.66 -2.75 5 C-6 6 -6 6 -10 6 C-7.90021558 0.15060054 -6.23502468 -0.49880197 0 0 Z " fill="#E2EEFE" transform="translate(269,26)"/>
<path d="M0 0 C2.3125 0.0625 2.3125 0.0625 5 1 C6.8125 4.5625 6.8125 4.5625 8 8 C8.99 5.36 9.98 2.72 11 0 C12.32 0 13.64 0 15 0 C14.37321829 3.66172475 13.35548154 6.8818995 11.9375 10.3125 C11.57527344 11.19550781 11.21304688 12.07851563 10.83984375 12.98828125 C10.56269531 13.65214844 10.28554687 14.31601562 10 15 C8.35 15 6.7 15 5 15 C4.16260219 12.8765984 3.33019717 10.7512272 2.5 8.625 C1.80390625 6.84996094 1.80390625 6.84996094 1.09375 5.0390625 C0 2 0 2 0 0 Z " fill="#EBF3FE" transform="translate(242,31)"/>
<path d="M0 0 C2.625 0.375 2.625 0.375 5 1 C5.02698189 2.62490954 5.04638757 4.24994633 5.0625 5.875 C5.07410156 6.77992187 5.08570313 7.68484375 5.09765625 8.6171875 C5 11 5 11 4 13 C1.5625 12.625 1.5625 12.625 -1 12 C-2.11445498 9.77109005 -2.16480286 8.46944894 -2.1875 6 C-2.20167969 5.29875 -2.21585937 4.5975 -2.23046875 3.875 C-2 2 -2 2 0 0 Z " fill="#1C77FD" transform="translate(290,30)"/>
<path d="M0 0 C0.66 0 1.32 0 2 0 C1.52797514 4.24822374 -0.96655518 6.19989709 -4 9 C-5.9375 8.25 -5.9375 8.25 -8 7 C-8.75 4.875 -8.75 4.875 -9 3 C-8.2575 3.2475 -7.515 3.495 -6.75 3.75 C-5.8425 3.8325 -4.935 3.915 -4 4 C-1.7914234 2.12491838 -1.7914234 2.12491838 0 0 Z " fill="#1C283C" transform="translate(37,18)"/>
<path d="M0 0 C1.98 0 3.96 0 6 0 C6.33 1.32 6.66 2.64 7 4 C4.03 4 1.06 4 -2 4 C-1.34 2.68 -0.68 1.36 0 0 Z " fill="#1E2636" transform="translate(157,33)"/>
<path d="M0 0 C1.98 0 3.96 0 6 0 C6.66 1.32 7.32 2.64 8 4 C5.03 4 2.06 4 -1 4 C-0.67 2.68 -0.34 1.36 0 0 Z " fill="#1E2636" transform="translate(120,33)"/>
</svg>
